<svg width="44" height="43" viewBox="0 0 44 43" fill="none" xmlns="http://www.w3.org/2000/svg">
<g filter="url(#filter0_d_18_2)">
<path d="M18.2328 0.411017C17.2577 0.617326 15.333 1.31462 13.9984 1.98472C11.9702 2.96508 11.2003 3.53283 9.35192 5.3912C7.50352 7.24958 6.93882 8.02363 5.96372 10.0627C3.34543 15.4571 3.34543 20.618 5.96372 26.0636C6.93882 28.1283 7.47807 28.8768 9.35192 30.7351C11.2258 32.6191 11.9448 33.1357 13.9984 34.1416C17.1305 35.6386 18.6448 36 21.9551 36C25.2653 36 26.7813 35.6386 29.9118 34.1416C31.9399 33.1613 32.6589 32.6191 34.5582 30.7351C36.4321 28.8256 36.9713 28.1027 37.9464 26.0636C39.1776 23.4568 39.5371 22.2445 39.8203 19.6633L40 18.064H34.9177L34.5837 20.0519C32.9659 30.4009 20.4153 34.5558 12.9708 27.2007C6.93882 21.2642 8.24797 11.1998 15.64 6.83856C17.0255 6.01333 19.8235 5.16091 21.1072 5.16091H21.9535V0L21.0038 0.0255883C20.4646 0.0255883 19.2334 0.206308 18.2312 0.412616L18.2328 0.411017ZM19.157 7.37752C13.7152 8.84887 10.1727 14.2944 11.0969 19.764C12.15 25.8285 17.797 29.9835 23.6492 28.9775C29.6557 27.946 33.8138 22.2413 32.8132 16.4087C31.6838 9.82763 25.4212 5.67268 19.157 7.37592V7.37752Z" fill="#F5F2E7"/>
<path d="M18.2328 0.411017C17.2577 0.617326 15.333 1.31462 13.9984 1.98472C11.9702 2.96508 11.2003 3.53283 9.35192 5.3912C7.50352 7.24958 6.93882 8.02363 5.96372 10.0627C3.34543 15.4571 3.34543 20.618 5.96372 26.0636C6.93882 28.1283 7.47807 28.8768 9.35192 30.7351C11.2258 32.6191 11.9448 33.1357 13.9984 34.1416C17.1305 35.6386 18.6448 36 21.9551 36C25.2653 36 26.7813 35.6386 29.9118 34.1416C31.9399 33.1613 32.6589 32.6191 34.5582 30.7351C36.4321 28.8256 36.9713 28.1027 37.9464 26.0636C39.1776 23.4568 39.5371 22.2445 39.8203 19.6633L40 18.064H34.9177L34.5837 20.0519C32.9659 30.4009 20.4153 34.5558 12.9708 27.2007C6.93882 21.2642 8.24797 11.1998 15.64 6.83856C17.0255 6.01333 19.8235 5.16091 21.1072 5.16091H21.9535V0L21.0038 0.0255883C20.4646 0.0255883 19.2334 0.206308 18.2312 0.412616L18.2328 0.411017ZM19.157 7.37752C13.7152 8.84887 10.1727 14.2944 11.0969 19.764C12.15 25.8285 17.797 29.9835 23.6492 28.9775C29.6557 27.946 33.8138 22.2413 32.8132 16.4087C31.6838 9.82763 25.4212 5.67268 19.157 7.37592V7.37752Z" stroke="black"/>
</g>
<defs>
<filter id="filter0_d_18_2" x="0" y="0" width="44" height="44" filterUnits="userSpaceOnUse" color-interpolation-filters="sRGB">
<feFlood flood-opacity="0" result="BackgroundImageFix"/>
<feColorMatrix in="SourceAlpha" type="matrix" values="0 0 0 0 0 0 0 0 0 0 0 0 0 0 0 0 0 0 127 0" result="hardAlpha"/>
<feOffset dy="4"/>
<feGaussianBlur stdDeviation="2"/>
<feComposite in2="hardAlpha" operator="out"/>
<feColorMatrix type="matrix" values="0 0 0 0 0 0 0 0 0 0 0 0 0 0 0 0 0 0 0.25 0"/>
<feBlend mode="normal" in2="BackgroundImageFix" result="effect1_dropShadow_18_2"/>
<feBlend mode="normal" in="SourceGraphic" in2="effect1_dropShadow_18_2" result="shape"/>
</filter>
</defs>
</svg>
